<mxfile host="app.diagrams.net" modified="2023-05-25T02:24:26.417Z" agent="Mozilla/5.0 (Windows NT 10.0; Win64; x64) AppleWebKit/537.36 (KHTML, like Gecko) Chrome/113.0.0.0 Safari/537.36" version="21.3.2" etag="puFxGSF1D7HIobr6Y3JM" type="github">
  <diagram name="페이지-1" id="xLjo3YW2OygXPJ53Bplz">
    <mxGraphModel>
      <root>
        <mxCell id="0" />
        <mxCell id="1" parent="0" />
      </root>
    </mxGraphModel>
  </diagram>
</mxfile>
